<svg width="59" height="76" viewBox="0 0 59 76" fill="none" xmlns="http://www.w3.org/2000/svg">
<path d="M41 54.6C41 57.2921 40.4698 59.9578 39.4395 62.445C38.4093 64.9322 36.8993 67.1921 34.9957 69.0957C33.0921 70.9993 30.8322 72.5093 28.345 73.5395C25.8578 74.5698 23.1921 75.1 20.5 75.1C17.8079 75.1 15.1422 74.5698 12.655 73.5395C10.1678 72.5093 7.90791 70.9993 6.00431 69.0957C4.10071 67.1921 2.59069 64.9322 1.56047 62.445C0.530248 59.9578 -2.35351e-07 57.2921 0 54.6L11.89 54.6C11.89 55.7307 12.1127 56.8503 12.5454 57.8949C12.9781 58.9395 13.6123 59.8887 14.4118 60.6882C15.2113 61.4877 16.1605 62.1219 17.2051 62.5546C18.2497 62.9873 19.3693 63.21 20.5 63.21C21.6307 63.21 22.7503 62.9873 23.7949 62.5546C24.8395 62.1219 25.7887 61.4877 26.5882 60.6882C27.3877 59.8887 28.0219 58.9395 28.4546 57.8949C28.8873 56.8503 29.11 55.7307 29.11 54.6H41Z" fill="#42B883"/>
<path d="M29 23C29 16.3726 34.3726 11 41 11V55H29V23Z" fill="#42B883"/>
<path d="M59 18C59 15.6362 58.5344 13.2956 57.6298 11.1117C56.7252 8.92784 55.3994 6.94353 53.7279 5.27208C52.0565 3.60062 50.0722 2.27475 47.8883 1.37017C45.7044 0.465584 43.3638 -1.03325e-07 41 0V10.6286C41.968 10.6286 42.9266 10.8193 43.8209 11.1897C44.7153 11.5602 45.5279 12.1031 46.2124 12.7876C46.8969 13.4721 47.4398 14.2847 47.8103 15.1791C48.1807 16.0734 48.3714 17.032 48.3714 18H59Z" fill="#42B883"/>
</svg>
