<svg width="48" height="60" viewBox="0 0 48 60" fill="none" xmlns="http://www.w3.org/2000/svg">
<path d="M30 60C25.2738 60 20.6145 58.8834 16.4017 56.7411C12.1889 54.5988 8.54184 51.4915 5.75773 47.6724C2.97363 43.8532 1.13124 39.4303 0.380697 34.7641C-0.369844 30.0979 -0.00729821 25.3204 1.43879 20.8208C2.88488 16.3213 5.37359 12.2271 8.70213 8.87181C12.0307 5.51654 16.1048 2.99516 20.5927 1.51312C25.0805 0.0310929 29.855 -0.369655 34.5271 0.343537C39.1991 1.05673 43.6366 2.86368 47.4779 5.61715L40.4867 15.3703C38.182 13.7182 35.5195 12.634 32.7162 12.2061C29.913 11.7782 27.0483 12.0187 24.3556 12.9079C21.6629 13.7971 19.2184 15.3099 17.2213 17.3231C15.2242 19.3362 13.7309 21.7928 12.8633 24.4925C11.9956 27.1922 11.7781 30.0587 12.2284 32.8585C12.6787 35.6582 13.7842 38.3119 15.4546 40.6034C17.1251 42.8949 19.3133 44.7593 21.841 46.0446C24.3687 47.33 27.1643 48 30 48L30 60Z" fill="#512BD4"/>
</svg>
